<svg height="512" viewBox="0 0 512 512" width="512" xmlns="http://www.w3.org/2000/svg"><g id="Filled_outline" data-name="Filled outline"><path d="m471.3 159.34c-12.02 11.98-28.55 17.37-46.1 16.58a6.029 6.029 0 0 1 -3.88-10.35 1.141 1.141 0 0 0 .11-.11c8.37-8.35 11.68-20.15 10.25-32.46a54.571 54.571 0 0 0 -4.52-16.1 62.688 62.688 0 0 0 -7.84-12.9 64.351 64.351 0 0 0 -5.42-6.12 63.486 63.486 0 0 0 -5.89-5.21 58.912 58.912 0 0 0 -28.91-12.45c-11.44-1.43-22.47 1.19-30.75 8.11-.77.64-1.51 1.32-2.23 2.04l-.15.15a6.012 6.012 0 0 1 -10.33-3.88c-.81-17.51 4.6-34 16.62-45.98 14.87-14.82 36.66-19.57 58.73-14.97a88.589 88.589 0 0 1 17.17 5.47c.36.16.73.32 1.09.48a99.633 99.633 0 0 1 24.3 15.49c1.99 1.69 3.94 3.5 5.84 5.39 1.93 1.92 3.76 3.9 5.49 5.92a98.962 98.962 0 0 1 15.99 25.37 87.239 87.239 0 0 1 5.47 17.17c4.55 21.94-.22 43.58-15.04 58.36z" fill="#ffb531"/><path d="m471.3 159.34c-12.02 11.98-28.55 17.37-46.1 16.58a6.029 6.029 0 0 1 -3.88-10.35 1.141 1.141 0 0 0 .11-.11c8.37-8.35 11.68-20.15 10.25-32.46a54.571 54.571 0 0 0 -4.52-16.1 455.684 455.684 0 0 0 2.09-85.26 99.633 99.633 0 0 1 24.3 15.49c1.99 1.69 3.94 3.5 5.84 5.39 1.93 1.92 3.76 3.9 5.49 5.92a98.962 98.962 0 0 1 15.99 25.37 87.239 87.239 0 0 1 5.47 17.17c4.55 21.94-.22 43.58-15.04 58.36z" fill="#fcac1f"/><path d="m281.62 417.32-129.91 54.14-36.1 15.04a19.58 19.58 0 0 1 -25.02-9.31l-9.27-18.55a19.562 19.562 0 0 1 9.87-26.76l131.01-55.42 35.8-15.15a23.989 23.989 0 0 1 31.41 12.65l5.04 11.76a23.992 23.992 0 0 1 -12.83 31.6z" fill="#f35244"/><path d="m281.62 417.32-129.91 54.14a466.872 466.872 0 0 0 70.49-95l35.8-15.15a23.989 23.989 0 0 1 31.41 12.65l5.04 11.76a23.992 23.992 0 0 1 -12.83 31.6z" fill="#e64c3f"/><path d="m189.361 160.042 33.744 50.615a14.374 14.374 0 0 1 -5.338 20.73 14.373 14.373 0 0 1 -19.01-5.472l-30.833-52.439a12.654 12.654 0 0 1 6.906-18.419 12.654 12.654 0 0 1 14.531 4.985z" fill="#d6d6d4"/><path d="m256 392v16l-40 8-57.33-76.44-14.67-19.56 16 32a35.752 35.752 0 0 1 0 32l-24 48 8 16-24 8-16-32 24-64-24-48-1.49-2.48-22.51-37.52-19.4 12.94-4.6 3.06v40l16 24-8 8-8-8v16h-32v-72.07a44.731 44.731 0 0 1 19.91-37.21l36.09-26.72-16-32-16-24 32-24 24 40-7 10.33 8 15.34 25.01-10.49 78.32-32.85 15.67 25.67-93 43 21 37 31.52 42.99 48.48 69.01z" fill="#fec9a3"/><path d="m256 392v16l-40 8-57.33-76.44-14.67-19.56 16 32a35.752 35.752 0 0 1 0 32l-24 48 8 16-24 8-16-32 24-64-24-48-1.49-2.48a456.438 456.438 0 0 0 27.5-102.34l78.32-32.85 15.67 25.67-93 43 21 37 31.52 42.99 48.48 69.01z" fill="#fec093"/><path d="m64 200v-24l19.891-14.919a16 16 0 0 0 3.709-21.675l-7.6-11.406-26.219 17.479a24 24 0 0 0 -5.428 34.962z" fill="#7a432a"/><path d="m158.67 339.56-14.67-19.56 11 22-27 18-24-48 48-32 31.52 42.99z" fill="#34507b"/><path d="m465.04 46.86c-35.933-35.828-89.059-41.152-118.429-11.869-12.892 12.854-19.6 30.836-18.994 50.743l-67.553 71.745-63.055-.383-.8-1.2-.188-.288a20.658 20.658 0 0 0 -35 21.93l3.756 6.384-56.089 23.526-2.39-4.582 4.322-6.378a8 8 0 0 0 .237-8.6l-16.175-26.966a24.006 24.006 0 0 0 -.422-25.953l-7.6-11.407a8 8 0 0 0 -11.094-2.218l-26.222 17.479a32 32 0 0 0 -7.238 46.616l15.118 18.9 12.616 25.229-30.54 22.61a52.631 52.631 0 0 0 -23.3 43.752v72.07a8 8 0 0 0 8 8h32a8 8 0 0 0 8-8 7.976 7.976 0 0 0 5.657-2.343l8-8a8 8 0 0 0 1-10.095l-14.657-21.984v-33.291l13.458-8.975 7.564 12.608 13.72-8.232-11.882-19.8a8 8 0 0 0 -11.3-2.539l-23.991 15.99a8 8 0 0 0 -3.569 6.661v40a8 8 0 0 0 1.344 4.438l7.756 11.638a8 8 0 0 0 -9.1 7.924v8h-16v-64.07a36.661 36.661 0 0 1 16.35-30.555c.108-.073.215-.148.32-.226l36.09-26.719a8 8 0 0 0 2.395-10.008l-15.155-30.311v-18.111l10.668-8 11.845 19.739-4.136 6.1a8 8 0 0 0 -.47 8.186l8 15.34a8 8 0 0 0 10.187 3.679l96.992-40.678 7.408 12.136-23.68 10.942c-.115.053-.228.109-.339.166l-60.832 28.124a8 8 0 0 0 -3.6 11.211l17.325 30.525-41.8 27.87a8 8 0 0 0 -2.717 10.234l22.439 44.88-22.781 60.737a8 8 0 0 0 .336 6.387l16 32a8 8 0 0 0 9.685 4.012l24-8a8 8 0 0 0 4.625-11.168l-6.211-12.422 8.991-17.982 38.4-16.242 17.265 23.024a8 8 0 0 0 7.969 3.045l40-8a8 8 0 0 0 6.431-7.845v-16a8 8 0 0 0 -8-8h-19.843l-2.579-3.671 27.54-11.652a16.028 16.028 0 0 1 20.939 8.434l5.04 11.76a15.993 15.993 0 0 1 -8.554 21.065l-166.006 69.178a11.581 11.581 0 0 1 -14.791-5.5l-9.271-18.552a11.614 11.614 0 0 1 1.914-13.091l-11.669-10.948a27.677 27.677 0 0 0 -4.556 31.193l9.275 18.561a27.579 27.579 0 0 0 35.248 13.108l166.013-69.179a31.993 31.993 0 0 0 17.1-42.138l-5.038-11.756a32.06 32.06 0 0 0 -41.882-16.871l-30.714 13-34.2-48.676-31.244-42.614-16.479-29.033 46.7-21.592 2.912 4.945a22.364 22.364 0 0 0 39.227-21.471l35.637-34.951 146.019 2.166a13.77 13.77 0 0 0 12.1 8.195q1.875.086 3.723.085c18.965 0 36.036-6.671 48.387-18.986 12.284-12.253 19.052-29.399 19.052-48.279 0-24.786-11.284-50.251-30.96-69.87zm-405.84 122.74a8 8 0 0 0 -3.2 6.4v1.194l-1.4-1.75a16 16 0 0 1 3.619-23.308l19.562-13.042 3.167 4.75a8 8 0 0 1 -1.856 10.837zm90.872 121.3 22.05 30.075-11.593 7.73-10.129-13.505a8 8 0 0 0 -13.555 8.378l7.841 15.683-13.586 9.055-16.789-33.577zm-21.227 144.678 3.874 7.749-8.667 2.89-11.337-22.674 21.87-58.318 17.315-11.542.948 1.895a27.91 27.91 0 0 1 0 24.844l-24 48a8 8 0 0 0 -.003 7.156zm36.107-43.593 2.2-4.407a43.716 43.716 0 0 0 4.54-17.318l10.746 14.327zm83.048 8.015v1.441l-28.625 5.726-49.231-65.642 11.319-7.547 43.991 62.622a8 8 0 0 0 6.546 3.4zm190.613-273.927a68.121 68.121 0 0 0 -13.613-27.762l34.2-34.2a90.454 90.454 0 0 1 16.055 27.142l-.913-.912zm-24.913-39.085a68.457 68.457 0 0 0 -27.756-13.618l35.713-35.713-.815-.815a91.175 91.175 0 0 1 27.039 15.963zm-55.79-40.667c11.73-11.694 28.561-16.08 46.174-13.717l-40.1 40.1a44.228 44.228 0 0 0 -20.409 9.2c.309-14.086 5.319-26.595 14.333-35.583zm-183.092 123.1a4.655 4.655 0 0 1 2.541-6.777 4.718 4.718 0 0 1 1.483-.239 4.6 4.6 0 0 1 3.822 2l6.254 9.383-9.246 3.878zm42.5 50.791a6.3 6.3 0 0 1 -3.22 4.066 6.353 6.353 0 0 1 -8.443-2.432l-2.11-3.584 11.477-5.305 1.425 2.138a6.3 6.3 0 0 1 .869 5.122zm9.887-30.324-10.179-16.675 27.014.164zm188.65-30.164-.031.031-134.056-1.989 54.915-58.323a14.077 14.077 0 0 0 14.917-3.234l.169-.17c13.5-13.456 38.834-10.087 56.481 7.509 10.01 9.978 15.75 22.719 15.75 34.952 0 8.573-2.841 15.938-8.147 21.229zm49.793-6.05c-9.019 8.993-21.576 13.992-35.713 14.3a44.536 44.536 0 0 0 9.126-19.724l40.339-40.339a68.778 68.778 0 0 1 .6 8.819c0 14.809-4.963 27.586-14.354 36.949z"/></g></svg>